<svg width="41" height="45" viewBox="0 0 41 45" fill="none" xmlns="http://www.w3.org/2000/svg">
<path d="M20.5 14.0625C18.9796 14.0625 17.4933 14.5574 16.2291 15.4845C14.9649 16.4116 13.9795 17.7294 13.3977 19.2711C12.8158 20.8129 12.6636 22.5094 12.9602 24.1461C13.2568 25.7828 13.989 27.2862 15.0641 28.4662C16.1392 29.6462 17.509 30.4498 19.0002 30.7754C20.4915 31.1009 22.0372 30.9338 23.4419 30.2952C24.8466 29.6566 26.0472 28.5752 26.8919 27.1876C27.7366 25.8001 28.1875 24.1688 28.1875 22.5C28.1875 20.2622 27.3776 18.1161 25.9359 16.5338C24.4942 14.9514 22.5389 14.0625 20.5 14.0625ZM20.5 28.125C19.4864 28.125 18.4955 27.7951 17.6527 27.177C16.8099 26.5589 16.153 25.6804 15.7651 24.6526C15.3772 23.6248 15.2757 22.4938 15.4735 21.4026C15.6712 20.3115 16.1593 19.3092 16.8761 18.5225C17.5928 17.7359 18.506 17.2001 19.5002 16.9831C20.4943 16.766 21.5248 16.8774 22.4613 17.3032C23.3977 17.7289 24.1981 18.4499 24.7613 19.3749C25.3244 20.2999 25.625 21.3875 25.625 22.5C25.6208 23.9904 25.0795 25.4185 24.1193 26.4724C23.159 27.5262 21.8579 28.1204 20.5 28.125ZM27.5469 4.92188H13.4531C11.0745 4.92188 8.79323 5.95898 7.11126 7.80504C5.42929 9.6511 4.48438 12.1549 4.48438 14.7656V30.2344C4.48438 32.8451 5.42929 35.3489 7.11126 37.195C8.79323 39.041 11.0745 40.0781 13.4531 40.0781H27.5469C29.9255 40.0781 32.2068 39.041 33.8887 37.195C35.5707 35.3489 36.5156 32.8451 36.5156 30.2344V14.7656C36.5156 12.1549 35.5707 9.6511 33.8887 7.80504C32.2068 5.95898 29.9255 4.92188 27.5469 4.92188ZM33.9531 30.2344C33.9531 31.1577 33.7874 32.072 33.4655 32.9251C33.1435 33.7782 32.6717 34.5533 32.0768 35.2062C31.4819 35.8591 30.7757 36.3771 29.9984 36.7304C29.2212 37.0838 28.3882 37.2656 27.5469 37.2656H13.4531C12.6118 37.2656 11.7788 37.0838 11.0016 36.7304C10.2243 36.3771 9.5181 35.8591 8.92322 35.2062C8.32835 34.5533 7.85647 33.7782 7.53452 32.9251C7.21258 32.072 7.04688 31.1577 7.04688 30.2344V14.7656C7.04688 12.9008 7.72182 11.1124 8.92322 9.79378C10.1246 8.47517 11.7541 7.73438 13.4531 7.73438H27.5469C28.3882 7.73438 29.2212 7.91624 29.9984 8.2696C30.7757 8.62295 31.4819 9.14087 32.0768 9.79378C32.6717 10.4467 33.1435 11.2218 33.4655 12.0749C33.7874 12.928 33.9531 13.8423 33.9531 14.7656V30.2344ZM30.75 13.3594C30.75 13.7766 30.6373 14.1844 30.4261 14.5313C30.2149 14.8782 29.9148 15.1485 29.5636 15.3082C29.2124 15.4678 28.826 15.5096 28.4532 15.4282C28.0804 15.3468 27.7379 15.1459 27.4692 14.8509C27.2004 14.5559 27.0173 14.1801 26.9432 13.7709C26.869 13.3617 26.9071 12.9376 27.0525 12.5522C27.198 12.1667 27.4443 11.8373 27.7604 11.6055C28.0764 11.3737 28.448 11.25 28.8281 11.25C29.3378 11.25 29.8267 11.4722 30.1871 11.8678C30.5475 12.2634 30.75 12.7999 30.75 13.3594Z" fill="white"/>
</svg>
